# 3ds Max Wavefront OBJ Exporter v0.97b - (c)2007 guruware
# File Created: 18.12.2017 16:31:45

mtllib cloud.mtl

#
# object Group005_GeoSphere032
#

v  49.1112 -0.1003 -3.6261
v  40.1570 11.2642 13.6548
v  40.0645 -15.6749 6.0747
v  18.3964 0.5669 24.7574
v  18.3256 -19.2130 14.5101
v  18.2850 -27.7381 -6.3502
v  40.0620 -11.4061 -20.8961
v  18.2986 -20.0146 -25.6039
v  18.3583 -0.5669 -31.9724
v  40.1545 15.5330 -13.3159
v  18.4291 19.2130 -21.7251
v  18.4695 27.7381 -0.8647
v  18.4559 20.0147 18.3890
v  -12.3566 0.1003 -3.5888
v  -3.4150 -15.9830 -16.4199
v  -3.3806 -10.6172 11.5035
v  -3.3291 10.7592 -18.6921
v  -3.2947 16.1250 9.2314
v  -12.1383 25.2707 7.0602
v  -21.7285 18.8351 18.7892
v  -2.9702 18.8351 13.6427
v  -15.9315 3.2984 26.3182
v  -1.5942 3.2984 19.3609
v  6.5664 3.2984 5.1980
v  -2.5481 18.8351 -4.6688
v  3.7701 3.2984 -7.8741
v  -8.3450 3.2984 -12.1979
v  -21.3064 18.8351 0.4777
v  -22.6823 3.2984 -5.2406
v  -30.8430 3.2984 8.9223
v  -28.0468 3.2984 21.9944
v  -12.1383 -18.6739 7.0602
v  0.0416 -12.2384 -1.6477
v  -6.8774 -12.2384 17.3107
v  -17.3992 -12.2384 -3.1903
v  -24.3181 -12.2384 15.7680
v  -24.0559 8.4608 18.2806
v  -30.8719 4.5752 26.6194
v  -17.5364 4.5752 22.9605
v  -26.7491 -4.8056 31.9723
v  -16.5571 -4.8056 27.0259
v  -10.7578 -4.8056 16.9567
v  -17.2399 4.5752 9.9417
v  -12.7483 -4.8056 7.6629
v  -21.3627 -4.8056 4.5889
v  -30.5754 4.5752 13.6006
v  -31.5547 -4.8056 9.5352
v  -37.3540 -4.8056 19.6045
v  -35.3635 -4.8056 28.8982
v  -24.0559 -18.0721 18.2806
v  -15.3981 -14.1864 12.0897
v  -20.3136 -14.1864 25.5682
v  -27.7982 -14.1864 10.9929
v  -32.7137 -14.1864 24.4715
v  -11.4965 -8.5609 17.8360
v  -14.0488 -10.5310 22.3839
v  -6.9486 -10.5310 20.3884
v  -10.7744 -15.2874 25.3032
v  -5.7058 -15.2874 22.6056
v  -4.0293 -15.2874 17.1140
v  -8.9441 -10.5310 13.2881
v  -6.7269 -15.2874 12.0453
v  -12.2185 -15.2874 10.3688
v  -16.0443 -10.5310 15.2836
v  -17.2871 -15.2874 13.0664
v  -18.9637 -15.2874 18.5580
v  -16.2661 -15.2874 23.6267
v  -11.4965 -22.0138 17.8360
v  -7.5219 -20.0437 14.4596
v  -8.1201 -20.0437 21.8105
v  -14.8729 -20.0437 13.8614
v  -15.4711 -20.0437 21.2124
v  -34.0659 6.5445 9.2122
v  -25.1489 1.9992 15.5088
v  -27.7694 1.9992 0.2952
v  -21.5950 -8.9742 18.0183
v  -19.0209 -8.9742 6.6208
v  -25.2599 -8.9742 -3.2587
v  -42.9830 1.9992 2.9157
v  -36.6575 -8.9742 -5.8329
v  -46.5369 -8.9742 0.4062
v  -40.3625 1.9992 18.1293
v  -49.1111 -8.9742 11.8037
v  -42.8721 -8.9742 21.6832
v  -31.4745 -8.9742 24.2574
v  -34.0659 -24.4930 9.2122
v  -27.7694 -19.9476 0.2952
v  -25.1489 -19.9476 15.5088
v  -42.9830 -19.9476 2.9157
v  -40.3625 -19.9476 18.1293
v  -29.0590 12.4466 22.9005
v  -31.6113 10.4765 27.4484
v  -24.5111 10.4765 25.4529
v  -28.3369 5.7201 30.3677
v  -23.2683 5.7201 27.6701
v  -21.5918 5.7201 22.1785
v  -26.5066 10.4765 18.3527
v  -24.2894 5.7201 17.1098
v  -29.7810 5.7201 15.4333
v  -33.6068 10.4765 20.3481
v  -34.8496 5.7201 18.1310
v  -36.5262 5.7201 23.6226
v  -33.8285 5.7201 28.6912
v  -29.0590 -1.0064 22.9005
v  -25.0844 0.9638 19.5241
v  -25.6825 0.9638 26.8751
v  -32.4354 0.9638 18.9260
v  -33.0336 0.9638 26.2770
# 108 vertices

vn 0.8315 -0.1523 0.5310
vn 0.5611 -0.3814 0.7323
vn 0.3848 -0.2507 0.8864
vn 0.2845 -0.8860 0.3615
vn 0.8361 -0.5388 -0.0854
vn 0.5867 -0.7498 -0.3004
vn 0.3901 -0.9076 -0.1437
vn 0.3120 -0.2960 -0.9009
vn 0.8319 0.1468 -0.5320
vn 0.5627 0.3777 -0.7330
vn 0.3853 0.2482 -0.8869
vn 0.2898 0.8841 -0.3619
vn 0.8397 0.5333 0.0843
vn 0.5919 0.7460 0.2997
vn 0.3962 0.9051 0.1432
vn 0.3150 0.2939 0.9006
vn -0.8294 -0.5455 0.1059
vn -0.5598 -0.7648 0.3136
vn -0.3827 -0.9054 0.1745
vn -0.2911 -0.4384 0.8483
vn -0.8426 -0.0426 -0.5337
vn -0.5958 -0.2476 -0.7618
vn -0.3997 -0.0762 -0.9116
vn -0.3127 -0.8798 -0.3532
vn -0.8259 0.5509 -0.1049
vn -0.5552 0.7684 -0.3130
vn -0.3770 0.9079 -0.1740
vn -0.2893 0.4403 -0.8480
vn -0.8416 0.0481 0.5347
vn -0.5933 0.2515 0.7625
vn -0.3981 0.0788 0.9121
vn -0.3066 0.8819 0.3535
vn 0.0000 1.0000 0.0000
vn -0.4535 0.6919 0.5618
vn 0.6065 0.6235 0.4934
vn 0.0364 -0.0284 0.9989
vn 0.6793 0.0033 0.7338
vn 0.9899 0.0272 0.1388
vn 0.4535 0.6919 -0.5618
vn 0.7492 -0.0045 -0.6624
vn -0.0364 -0.0284 -0.9989
vn -0.6065 0.6235 -0.4934
vn -0.6793 0.0033 -0.7339
vn -0.9899 0.0272 -0.1388
vn -0.7492 -0.0045 0.6624
vn -0.0000 -1.0000 0.0000
vn 0.6099 -0.6883 -0.3928
vn 0.4347 -0.6278 0.6457
vn -0.4347 -0.6278 -0.6457
vn -0.6099 -0.6883 0.3928
vn -0.4307 0.7321 0.5278
vn 0.5762 0.6659 0.4738
vn 0.0360 -0.0311 0.9989
vn 0.6791 0.0038 0.7340
vn 0.9899 0.0301 0.1383
vn 0.4307 0.7321 -0.5278
vn 0.7488 -0.0048 -0.6628
vn -0.0360 -0.0311 -0.9989
vn -0.5762 0.6659 -0.4738
vn -0.6791 0.0038 -0.7340
vn -0.9899 0.0301 -0.1383
vn -0.7488 -0.0048 0.6628
vn 0.0000 -1.0000 0.0000
vn 0.5750 -0.7284 -0.3725
vn 0.4193 -0.6700 0.6126
vn -0.4193 -0.6700 -0.6126
vn -0.5750 -0.7284 0.3725
vn 0.0000 1.0000 -0.0000
vn -0.3549 0.7238 0.5917
vn 0.5917 0.7238 0.3549
vn 0.0963 -0.0000 0.9954
vn 0.7719 -0.0000 0.6358
vn 0.9954 0.0000 -0.0962
vn 0.3549 0.7238 -0.5917
vn 0.6358 -0.0000 -0.7719
vn -0.0962 0.0000 -0.9954
vn -0.5917 0.7238 -0.3549
vn -0.7719 0.0000 -0.6358
vn -0.9954 -0.0000 0.0962
vn -0.6358 -0.0000 0.7719
vn 0.5127 -0.7238 -0.4617
vn 0.4617 -0.7238 0.5127
vn -0.4617 -0.7238 -0.5127
vn -0.5127 -0.7238 0.4617
vn 0.5828 0.7007 0.4115
vn 0.4115 0.7007 -0.5828
vn 0.8169 -0.0000 0.5768
vn 0.9855 -0.0000 -0.1697
vn 0.5768 0.0000 -0.8169
vn -0.5828 0.7007 -0.4115
vn -0.1697 -0.0000 -0.9855
vn -0.8169 -0.0000 -0.5768
vn -0.4115 0.7007 0.5828
vn -0.9855 0.0000 0.1697
vn -0.5768 0.0000 0.8169
vn 0.1697 -0.0000 0.9855
vn 0.0000 -1.0000 -0.0000
vn 0.4115 -0.7007 -0.5828
vn 0.5828 -0.7007 0.4115
vn -0.5828 -0.7007 -0.4115
vn -0.4115 -0.7007 0.5828
vn 0.0962 0.0000 0.9954
vn 0.7719 0.0000 0.6358
vn -0.0963 0.0000 -0.9954
vn -0.9954 0.0000 0.0962
vn -0.6358 0.0000 0.7719
# 106 vertex normals

vt 0.6250 1.0000 0.0000
vt 0.5000 0.7500 0.0000
vt 0.7500 0.7500 0.0000
vt 0.5000 0.5000 0.0000
vt 0.6250 0.5000 0.0000
vt 0.7500 0.5000 0.0000
vt 0.8750 1.0000 0.0000
vt 1.0000 0.7500 0.0000
vt 0.8750 0.5000 0.0000
vt 1.0000 0.5000 0.0000
vt 0.1250 1.0000 0.0000
vt 0.0000 0.7500 0.0000
vt 0.2500 0.7500 0.0000
vt 0.0000 0.5000 0.0000
vt 0.1250 0.5000 0.0000
vt 0.2500 0.5000 0.0000
vt 0.3750 1.0000 0.0000
vt 0.3750 0.5000 0.0000
vt 0.6250 0.0000 0.0000
vt 0.7500 0.2500 0.0000
vt 0.5000 0.2500 0.0000
vt 0.8750 0.0000 0.0000
vt 1.0000 0.2500 0.0000
vt 0.1250 0.0000 0.0000
vt 0.2500 0.2500 0.0000
vt 0.0000 0.2500 0.0000
vt 0.3750 0.0000 0.0000
# 27 texture coords

g Group005_GeoSphere032
usemtl _cloudGeoSphere002SG
s 1
f 1/1/1 2/2/1 3/3/1 
f 2/2/2 4/4/2 5/5/2 
f 2/2/3 5/5/3 3/3/3 
f 3/3/4 5/5/4 6/6/4 
f 1/7/5 3/3/5 7/8/5 
f 3/3/6 6/6/6 8/9/6 
f 3/3/7 8/9/7 7/8/7 
f 7/8/8 8/9/8 9/10/8 
f 1/11/9 7/12/9 10/13/9 
f 7/12/10 9/14/10 11/15/10 
f 7/12/11 11/15/11 10/13/11 
f 10/13/12 11/15/12 12/16/12 
f 1/17/13 10/13/13 2/2/13 
f 10/13/14 12/16/14 13/18/14 
f 10/13/15 13/18/15 2/2/15 
f 2/2/16 13/18/16 4/4/16 
f 14/19/17 15/20/17 16/21/17 
f 15/20/18 6/6/18 5/5/18 
f 15/20/19 5/5/19 16/21/19 
f 16/21/20 5/5/20 4/4/20 
f 14/22/21 17/23/21 15/20/21 
f 17/23/22 9/10/22 8/9/22 
f 17/23/23 8/9/23 15/20/23 
f 15/20/24 8/9/24 6/6/24 
f 14/24/25 18/25/25 17/26/25 
f 18/25/26 12/16/26 11/15/26 
f 18/25/27 11/15/27 17/26/27 
f 17/26/28 11/15/28 9/14/28 
f 14/27/29 16/21/29 18/25/29 
f 16/21/30 4/4/30 13/18/30 
f 16/21/31 13/18/31 18/25/31 
f 18/25/32 13/18/32 12/16/32 
f 19/1/33 20/2/34 21/3/35 
f 20/2/34 22/4/36 23/5/37 
f 20/2/34 23/5/37 21/3/35 
f 21/3/35 23/5/37 24/6/38 
f 19/7/33 21/3/35 25/8/39 
f 21/3/35 24/6/38 26/9/40 
f 21/3/35 26/9/40 25/8/39 
f 25/8/39 26/9/40 27/10/41 
f 19/11/33 25/12/39 28/13/42 
f 25/12/39 27/14/41 29/15/43 
f 25/12/39 29/15/43 28/13/42 
f 28/13/42 29/15/43 30/16/44 
f 19/17/33 28/13/42 20/2/34 
f 28/13/42 30/16/44 31/18/45 
f 28/13/42 31/18/45 20/2/34 
f 20/2/34 31/18/45 22/4/36 
f 32/19/46 33/20/47 34/21/48 
f 33/20/47 24/6/38 23/5/37 
f 33/20/47 23/5/37 34/21/48 
f 34/21/48 23/5/37 22/4/36 
f 32/22/46 35/23/49 33/20/47 
f 35/23/49 27/10/41 26/9/40 
f 35/23/49 26/9/40 33/20/47 
f 33/20/47 26/9/40 24/6/38 
f 32/24/46 36/25/50 35/26/49 
f 36/25/50 30/16/44 29/15/43 
f 36/25/50 29/15/43 35/26/49 
f 35/26/49 29/15/43 27/14/41 
f 32/27/46 34/21/48 36/25/50 
f 34/21/48 22/4/36 31/18/45 
f 34/21/48 31/18/45 36/25/50 
f 36/25/50 31/18/45 30/16/44 
f 37/1/33 38/2/51 39/3/52 
f 38/2/51 40/4/53 41/5/54 
f 38/2/51 41/5/54 39/3/52 
f 39/3/52 41/5/54 42/6/55 
f 37/7/33 39/3/52 43/8/56 
f 39/3/52 42/6/55 44/9/57 
f 39/3/52 44/9/57 43/8/56 
f 43/8/56 44/9/57 45/10/58 
f 37/11/33 43/12/56 46/13/59 
f 43/12/56 45/14/58 47/15/60 
f 43/12/56 47/15/60 46/13/59 
f 46/13/59 47/15/60 48/16/61 
f 37/17/33 46/13/59 38/2/51 
f 46/13/59 48/16/61 49/18/62 
f 46/13/59 49/18/62 38/2/51 
f 38/2/51 49/18/62 40/4/53 
f 50/19/63 51/20/64 52/21/65 
f 51/20/64 42/6/55 41/5/54 
f 51/20/64 41/5/54 52/21/65 
f 52/21/65 41/5/54 40/4/53 
f 50/22/63 53/23/66 51/20/64 
f 53/23/66 45/10/58 44/9/57 
f 53/23/66 44/9/57 51/20/64 
f 51/20/64 44/9/57 42/6/55 
f 50/24/63 54/25/67 53/26/66 
f 54/25/67 48/16/61 47/15/60 
f 54/25/67 47/15/60 53/26/66 
f 53/26/66 47/15/60 45/14/58 
f 50/27/63 52/21/65 54/25/67 
f 52/21/65 40/4/53 49/18/62 
f 52/21/65 49/18/62 54/25/67 
f 54/25/67 49/18/62 48/16/61 
f 55/1/68 56/2/69 57/3/70 
f 56/2/69 58/4/71 59/5/72 
f 56/2/69 59/5/72 57/3/70 
f 57/3/70 59/5/72 60/6/73 
f 55/7/68 57/3/70 61/8/74 
f 57/3/70 60/6/73 62/9/75 
f 57/3/70 62/9/75 61/8/74 
f 61/8/74 62/9/75 63/10/76 
f 55/11/68 61/12/74 64/13/77 
f 61/12/74 63/14/76 65/15/78 
f 61/12/74 65/15/78 64/13/77 
f 64/13/77 65/15/78 66/16/79 
f 55/17/68 64/13/77 56/2/69 
f 64/13/77 66/16/79 67/18/80 
f 64/13/77 67/18/80 56/2/69 
f 56/2/69 67/18/80 58/4/71 
f 68/19/63 69/20/81 70/21/82 
f 69/20/81 60/6/73 59/5/72 
f 69/20/81 59/5/72 70/21/82 
f 70/21/82 59/5/72 58/4/71 
f 68/22/63 71/23/83 69/20/81 
f 71/23/83 63/10/76 62/9/75 
f 71/23/83 62/9/75 69/20/81 
f 69/20/81 62/9/75 60/6/73 
f 68/24/63 72/25/84 71/26/83 
f 72/25/84 66/16/79 65/15/78 
f 72/25/84 65/15/78 71/26/83 
f 71/26/83 65/15/78 63/14/76 
f 68/27/63 70/21/82 72/25/84 
f 70/21/82 58/4/71 67/18/80 
f 70/21/82 67/18/80 72/25/84 
f 72/25/84 67/18/80 66/16/79 
f 73/1/68 74/2/85 75/3/86 
f 74/2/85 76/4/87 77/5/88 
f 74/2/85 77/5/88 75/3/86 
f 75/3/86 77/5/88 78/6/89 
f 73/7/68 75/3/86 79/8/90 
f 75/3/86 78/6/89 80/9/91 
f 75/3/86 80/9/91 79/8/90 
f 79/8/90 80/9/91 81/10/92 
f 73/11/68 79/12/90 82/13/93 
f 79/12/90 81/14/92 83/15/94 
f 79/12/90 83/15/94 82/13/93 
f 82/13/93 83/15/94 84/16/95 
f 73/17/68 82/13/93 74/2/85 
f 82/13/93 84/16/95 85/18/96 
f 82/13/93 85/18/96 74/2/85 
f 74/2/85 85/18/96 76/4/87 
f 86/19/97 87/20/98 88/21/99 
f 87/20/98 78/6/89 77/5/88 
f 87/20/98 77/5/88 88/21/99 
f 88/21/99 77/5/88 76/4/87 
f 86/22/97 89/23/100 87/20/98 
f 89/23/100 81/10/92 80/9/91 
f 89/23/100 80/9/91 87/20/98 
f 87/20/98 80/9/91 78/6/89 
f 86/24/97 90/25/101 89/26/100 
f 90/25/101 84/16/95 83/15/94 
f 90/25/101 83/15/94 89/26/100 
f 89/26/100 83/15/94 81/14/92 
f 86/27/97 88/21/99 90/25/101 
f 88/21/99 76/4/87 85/18/96 
f 88/21/99 85/18/96 90/25/101 
f 90/25/101 85/18/96 84/16/95 
f 91/1/68 92/2/69 93/3/70 
f 92/2/69 94/4/102 95/5/103 
f 92/2/69 95/5/103 93/3/70 
f 93/3/70 95/5/103 96/6/73 
f 91/7/68 93/3/70 97/8/74 
f 93/3/70 96/6/73 98/9/75 
f 93/3/70 98/9/75 97/8/74 
f 97/8/74 98/9/75 99/10/104 
f 91/11/68 97/12/74 100/13/77 
f 97/12/74 99/14/104 101/15/78 
f 97/12/74 101/15/78 100/13/77 
f 100/13/77 101/15/78 102/16/105 
f 91/17/68 100/13/77 92/2/69 
f 100/13/77 102/16/105 103/18/106 
f 100/13/77 103/18/106 92/2/69 
f 92/2/69 103/18/106 94/4/102 
f 104/19/97 105/20/81 106/21/82 
f 105/20/81 96/6/73 95/5/103 
f 105/20/81 95/5/103 106/21/82 
f 106/21/82 95/5/103 94/4/102 
f 104/22/97 107/23/83 105/20/81 
f 107/23/83 99/10/104 98/9/75 
f 107/23/83 98/9/75 105/20/81 
f 105/20/81 98/9/75 96/6/73 
f 104/24/97 108/25/84 107/26/83 
f 108/25/84 102/16/105 101/15/78 
f 108/25/84 101/15/78 107/26/83 
f 107/26/83 101/15/78 99/14/104 
f 104/27/97 106/21/82 108/25/84 
f 106/21/82 94/4/102 103/18/106 
f 106/21/82 103/18/106 108/25/84 
f 108/25/84 103/18/106 102/16/105 
# 0 polygons - 192 triangles

